<?xml version="1.0" standalone="no"?>
<!DOCTYPE svg PUBLIC "-//W3C//DTD SVG 20010904//EN"
 "http://www.w3.org/TR/2001/REC-SVG-20010904/DTD/svg10.dtd">
<svg version="1.0" xmlns="http://www.w3.org/2000/svg"
 width="512.000000pt" height="512.000000pt" viewBox="0 0 512.000000 512.000000"
 preserveAspectRatio="xMidYMid meet">

<g transform="translate(0.000000,512.000000) scale(0.100000,-0.100000)"
fill="#000000" stroke="none">
<path d="M2268 5009 c-632 -67 -1230 -351 -1644 -782 -322 -334 -524 -734
-590 -1168 -21 -140 -24 -415 -5 -549 30 -217 99 -439 200 -645 104 -213 227
-380 433 -591 l118 -120 -20 -75 c-27 -96 -106 -256 -170 -341 -28 -37 -126
-138 -217 -225 -274 -260 -309 -296 -315 -326 -7 -34 4 -43 76 -61 310 -81
727 -18 1321 199 200 73 387 151 489 202 l71 36 135 -18 c178 -23 541 -31 696
-15 626 64 1172 310 1598 720 362 349 580 758 651 1224 24 157 16 540 -14 677
-73 335 -195 603 -394 869 -93 124 -326 357 -452 452 -431 322 -941 511 -1453
538 -207 11 -405 11 -514 -1z m112 -2011 c0 -535 -6 -608 -60 -771 -50 -149
-93 -220 -200 -327 -81 -82 -109 -103 -190 -143 -87 -43 -228 -87 -323 -101
-34 -4 -39 -2 -47 20 -6 14 -10 92 -10 174 l0 149 73 54 c183 136 281 306 303
527 l7 70 -185 0 -185 0 -6 128 c-9 161 -9 665 -1 686 5 14 51 16 415 16 l409
0 0 -482z m1384 -43 c0 -572 -1 -583 -66 -763 -78 -216 -246 -378 -488 -471
-114 -44 -240 -73 -257 -59 -10 8 -13 52 -13 177 l0 167 30 18 c115 67 225
188 278 304 35 74 75 245 70 291 l-3 26 -185 5 -185 5 -3 400 c-1 220 0 406 3
413 3 10 91 12 412 10 l408 -3 -1 -520z"/>
</g>
</svg>
